<?xml version="1.0" encoding="UTF-8"?>
<svg version="1.1" viewBox="0 0 2048 1179"  xmlns="http://www.w3.org/2000/svg">
<path transform="translate(197,907)" d="m0 0h360l12 36 10 33v3l-2 1h-380l-1-2v-70z" fill="#D9DADA"/>
<path transform="translate(569,410)" d="m0 0h79l1 1v274l-4-4-8-11-12-12-14-9-14-6-17-4-11-1-1-1v-226z" fill="#ACADAE"/>
<path transform="translate(472,261)" d="m0 0h58l1 1v31l-1 29-4-2-8-9h-4v2l-8 7-10 9-11 9-14 14-8 7-8 8-8 7-14 14-8 7-7 7-8 7-7 7-5 4h-2l-7-9-26-26-4 2-20 20-8 7-20 20-8 7-15 15-11 9-14 14-8 7-13 13-4-1-8-10-18-18v-4l11-9 13-13 7-8 14-14h2l1-3 8-7 45-45 8-7 30-30 10-8 4 2 10 8 16 15 7 8 4-1 16-16 4-5 11-9 27-27 1-2h2l2-4 17-17-6-7-4-3z" fill="#6A089F"/>
<path transform="translate(260,588)" d="m0 0 9 3 3 4 1 5 1 31-2 12-6 7-2 2 21 7 12 7 9 9 7 14 3 12v9l-3 15-7 14-9 10-14 8-16 5-14 2h-21v60l-1 1h-38v-168l7-4-4-9v-49l2-3 6-1zm-27 95-1 1v50h19l11-3 8-6 4-5 3-9-1-11-4-8-6-5-6-3-5-1z" fill="#E56807"/>
<path transform="translate(444,462)" d="m0 0h64l15 1 1 2v164l-1 18-14 9-10 9-10 10-6-1-9 2-2 1-9-14-10-9-10-6-1-20v-154l1-11z" fill="#C2C3C4"/>
<path transform="translate(554,651)" d="m0 0h21l15 3 13 5 11 7 10 9 8 10 8 16 4 13 2 10v27l-4 20-6 15-7 11-9 10-10 8-16 8-15 4-9 1h-16l-16-3-13-5-11-7-10-9-8-10-8-16-4-13-2-12v-26l3-15 6-15 6-11 8-10 9-9 15-9 15-5zm3 31-9 4-6 4-7 7-8 16-3 10-1 7v17l3 17 6 14 7 9 9 6 6 3 6 1h9l11-4 6-4 5-5 6-8 5-13 2-9 1-12v-10l-3-16-5-12-6-9-7-7-11-5-5-1z" fill="#E56807"/>
<path transform="translate(1075,651)" d="m0 0h18l16 3 11 4 11 6 13 11 9 12 8 17 5 21v25l-4 20-5 13-6 11-8 10-10 9-12 7-14 5-9 2-10 1h-14l-14-2-12-4-13-7-10-9-11-15-7-15-4-15-2-19 1-17 5-19 5-12 7-11 9-12 11-8 16-8 12-3zm3 31-10 3-9 6-8 9-7 16-2 8-1 10v9l2 16 4 13 6 10 8 8 12 6 13 1 10-2 10-6 7-7 5-9 4-11 2-9v-28l-5-17-6-11-9-9-11-5-5-1z" fill="#6A099F"/>
<path transform="translate(1376,651)" d="m0 0h19l16 3 13 5 11 7 10 9 7 8 9 17 5 17 2 12v16l-3 20-6 18-7 12-9 11-10 8-16 8-12 4-15 2h-14l-14-2-15-5-13-9-12-12-9-14-6-15-3-13-1-9v-17l2-14 6-18 7-13 7-9 5-6 14-11 13-6 12-3zm3 31-10 3-8 6-7 7-7 14-3 10-1 8v18l3 16 5 12 6 9 7 6 11 5 12 1 10-2 10-5 7-7 6-10 5-16 1-6v-24l-4-16-8-15-7-7-12-6-5-1z" fill="#6A099F"/>
<path transform="translate(367,653)" d="m0 0h40l19 3 13 5 9 6 7 7 6 13 2 9v12l-2 8-5 9-7 9-10 7-6 2 3 3 8 6 7 11 7 21 8 30 3 11h-40l-4-10-8-29-5-16-5-7-8-4-8-1h-11l-1 67h-39v-169l13-2zm18 29-6 2v45h20l11-3 9-6 4-6 1-9-2-10-4-6-8-5-10-2z" fill="#E56807"/>
<path transform="translate(1577,652)" d="m0 0h10l21 2 17 4 5 2-1 8-6 23-2 1-12-4-12-2h-26l-13 3-12 6-8 7-6 9-5 14-1 5v18l4 16 6 11 6 7 13 8 15 4h22l5-1 1-36h-25l-1-1v-30h64v91l-12 4-21 4-16 2h-22l-19-3-18-6-12-7-12-11-8-11-7-19-3-13-1-8v-17l3-15 7-20 6-10 11-12 13-9 17-8 16-4z" fill="#6A099F"/>
<path transform="translate(672,654)" d="m0 0h103l1 1v30l-1 1h-65v37l61 1v31l-1 1h-60v68l-1 1h-37z" fill="#6A089F"/>
<path transform="translate(323,515)" d="m0 0h73l2 2v119l-1 3-12 2-29 1-22 3-7 1-1 8-1 2h-3l-1 3-1-2-1-17-1-33v-69l1-22z" fill="#D9DADA"/>
<path transform="translate(1652,654)" d="m0 0h43l4 8 25 60 1 3 2 1 3-9 17-41 9-21 1-1h43l-2 5-13 24-14 24-8 14-8 13-10 18-1 72-1 1h-38l-1-71-16-30-9-15-17-32-8-16z" fill="#6A099F"/>
<path transform="translate(865,654)" d="m0 0h131v33h-47v138h-39v-138h-45z" fill="#69079E"/>
<path transform="translate(1190,654)" d="m0 0h39v138h68l1 1v31l-1 1h-107z" fill="#6A089E"/>
<path transform="translate(1193,327)" d="m0 0h52v87l5-5 11-13 5-1h37l-1-8-4-2 1-2 3-1 1-6-5-1 1-3 3-1v-6l-4-1v-3l4-1 1-6-5-1v-3h5v-8h-12v48l-4-1-1-41-12 16-1 5v20h-4v-24l4-7 11-14 4-5h60l1 2-1 202h-38l-4-1-2 1-62 1h-46l-3-1-1-208-10 14-4 9h-2l1-8 9-14zm5 2-1 1v209l1 1h43l1-1v-209l-1-1zm122 13v198h24l1-1v-196l-1-1zm-56 57v141h37v-141zm-5 4-4 5-1 9v123h7v-137zm-14 17v119l2 1v-120z" fill="#3E2C89"/>
<path transform="translate(805,654)" d="m0 0h39v171h-38l-1-1z" fill="#6A079F"/>
<path transform="translate(260,588)" d="m0 0 9 3 3 4 1 5 1 31-2 12-6 7-2 2 3 2h-47l-21 1 1-3-4-8v-49l2-3 6-1z" fill="#FEFEFE"/>
<path transform="translate(1422,441)" d="m0 0h137l1 3-5 2v11h-22l-1-5v-8h-5l1 2v11l-5 1v52l5 1v11l4 1v-11l5-2v-35l1-17 3 1v51l5 1v-51h4v42l1 8 4 1 1 12 4 2v7l-4-1v-4l-6 1h-43l-82 1v2h-5l1-7 3-1 2-12 4-1 1-7v-37l1-8-6-1v-12l-6-1v-2zm7 3v10h15l1-1v-8l-6-1zm27 0v9l1 1h15l1-9-4-1zm-8 0-1 2 1 7v3l-5 1v53l5 1 1 11-2 1 3 1 3-1 1-11 4-2 1-50 2-1 1 52h4l1-52h3v51l5 1v12h5v-25l1-9 4-5 2-1h7l5 4 1 3v33h6v-11l4-1 1-53h2v53h6l1-52 1-2h-15v-12l-5-1v13l-20-1v-11l-5-1-1 4v9l-21-1-1-11zm36 0-1 1v8l1 1h13l1-7v-2l-5-1zm25 0-1 5 1 5h15l1-2v-7l-1-1zm27 0-1 1 1 8 1 1h14l1-9-6-1zm-102 13v53h6l1-53zm55 28-4 2-1 2v34h14l-1-34-4-4zm-59 29-1 2v7l9 1 7-1-1-9zm27 0-1 1v8h17l-1-9zm52 0-1 9h17l-1-9zm27 0v10h16l-1-10z" fill="#483987"/>
<path transform="translate(601,200)" d="m0 0h12l1 1v17l18 4 7 3-1 7-3 6-2 1-12-5-6-1h-11l-7 3-5 5-2 4v8l3 6 8 6 26 13 8 6 6 9 3 9v12l-4 10-5 6-11 7-10 3-1 19-1 1h-11l-1-1v-17l-21-5-8-4-1-2 4-10 5 1 11 4 6 1h14l7-2 5-4 3-5v-12l-3-6-1-3-34-17-8-7-6-9-1-3v-14l3-9 9-10 10-5 7-1z" fill="#E56809"/>
<path transform="translate(1152,360)" d="m0 0h26l7 1 1 12 4 1-1 167-4 1-3 8h-7v-6h-40l-2-1v-157l7-11zm3 3-1 4v168l1 5h19l1-41v-121l7-2v-12l-9-1zm-5 5-12 15-2 4v152l1 1h14v-172z" fill="#3F2E87"/>
<path transform="translate(762,388)" d="m0 0 5 2 24 24-2 5-5 6-1 5-5 5-1 4 2 2v3l-4-2h-4l-5 5 1 4 7 6 10-2 8 6-1 4-3 3 2 4 68 68-6 8-6 6-5-2-67-67-4 2-1 1h-5l-7-7-1-3 4-5-2-4-6-6h-5l-2 4-2 1 2 5 1 3-5-2-5 1-5 5-5 1-8 7-5-3-9-11-12-12v-4l4-2 2-5 2-4 5-6-2-5v-3l4 2 4-1 26-26 1-3-3-4v-2l5 2h4l7-6 5-2zm1 4-6 6 1 4 8 7 13 13 4-1 3-4-1-4-21-21zm-12 7-7 6 6 8 3 1v2l8 7 11 11 4-1v-2h2l1-4-21-21-1-2h-2l-2-4zm-10 10-7 7-8 7-13 13v2h-2l1 4 13 13 11 9 1 2 5-1 7-7 8-7 13-13-2-4-25-25zm-33 34-5 5 2 4 24 24 6-4 1-4-14-13-8-7-5-5zm53 8-7 7 2 4 7 7 4-2 5-5-2-4-8-7zm-60 3-4 5 1 4 10 10 8 10 5-2 2-2-1-5-20-20zm79 5-19 19 3 5 4 1 15-16 4-4-1-4zm4 13-5 5-3 2 1 4 67 67 7-6 1-5-67-67z" fill="#423187"/>
<path transform="translate(1612,446)" d="m0 0 2 1v15h9l2-4 2 1v3h9l1-16 3 1v65l-1 6 1 5v14h-3l-1-9-9-1v20h-3l-1-19h-8l-2 3-3-1v-3h-9v-65h9v-13z" fill="#3A2788"/>
<path transform="translate(595,906)" d="m0 0h7l3 3 11 49 2 7 7-29 8-29h10l2 6 9 38 3 13 14-54 1-3 8-1 1 4-10 36-9 30-2 2-8-1-2-5-10-41-2-9-7 24-8 29-3 3-7-1-3-7-13-51-2-8z" fill="#48484A"/>
<path transform="translate(1441,458)" d="m0 0h2v52l5 1 1 11 1 1h3v-11l4-2 1-50 3-2 1 1v52h4v-50l1-2h3l1 51 4 1 1 2v9l4 1-1-25 1-9 5-6 2-1h7l6 5 1 3v32l8 2 15 1 3 2-20 1-82 1v2h-5l1-7 3-1 2-12 4-1 1-7v-37l2-7h2v49l-1 2h6v-50zm48 27-4 2-1 2v34h14l-1-34-4-4zm-59 29-1 2v7l9 1 7-1-1-9zm27 0-1 1v8h17l-1-9z" fill="#4D4086"/>
<path transform="translate(1317,907)" d="m0 0h10l4 4 15 27 11 18 3 5v3h2l-1-3v-54h8v70l-1 1-8-1-12-18-13-23-9-16v57l-1 1h-7l-1-4z" fill="#49494A"/>
<path transform="translate(1611,905)" d="m0 0h8l10 2 9 6 6 8 3 8 1 4v17l-3 10-5 8-8 7-11 4h-11l-8-2-8-5-6-7-5-13v-19l4-11 4-6 8-7 7-3zm0 7-10 5-6 9-3 12v10l3 11 7 9 5 3 4 1h10l8-4 6-8 3-8 1-11-2-13-5-9-9-6-3-1z" fill="#47474A"/>
<path transform="translate(826,907)" d="m0 0h24l8 3 5 5 2 4v10l-6 8-2 1 1 3 7 6 2 4v13l-4 7-9 5-5 1h-25l-1-1v-68zm7 6-1 1v22l1 1h11l6-2 5-4 1-2v-9l-5-5-6-2zm0 30-1 1v26l1 1h13l8-3 4-5 1-8-3-6-5-4-10-2z" fill="#45454B"/>
<path transform="translate(1526,907)" d="m0 0h25l9 4 5 6 2 10-2 7-6 7-4 3 5 5 5 13 3 12v4h-7l-2-1-7-24-5-5-15-1-1 30-1 1h-7l-1-2v-67zm7 6-2 1v26h14l7-3 5-5 1-8-3-6-5-4-5-1z" fill="#48494A"/>
<path transform="translate(876,427)" d="m0 0 4 1v13h6l2 2v5l3 1v59l-3 1-1 5-4 1h-2l-1 13-4-1v-12h-6l-2-2v-49l1-22 1-1h6zm-2 17-2 1v65h11v-2l-7-1v-58l7-1 1-3-2-1z" fill="#453488"/>
<path transform="translate(673,527)" d="m0 0h74v23l87 1v3l-107 1h-53l-2-1v-23zm3 4v10h68v-10zm0 16v3h68l-1-3z" fill="#4A3B89"/>
<path transform="translate(945,370)" d="m0 0 3 1v13h6l2 3v4l3 1 1 12-1 49h-3l-1 9-6 2-1 12h-4l-1-12-6-1-1-57 1-21 1-1h6v-13zm-4 17-1 1v72h12v-6l-1-1h-6v-61l7-1-1-4z" fill="#412F89"/>
<path transform="translate(1034,906)" d="m0 0h37l1 1v7h-30v22h28l1 1v5l-1 1-27 1-1 26h31l1 1v6l-12 1h-28l-1-1v-70z" fill="#49494D"/>
<path transform="translate(887,906)" d="m0 0h37l1 1v6l-1 1h-29v22h28l1 6-1 1-27 1-1 26h30l2 2v5l-17 1h-23l-1-1v-70z" fill="#4A4B4C"/>
<path transform="translate(1012,372)" d="m0 0h3l1 4v10h6l2 2v5h3l1 4v40l-1 13-2 1-2 6h-7l-1 12h-3v-12h-7l-1-5v-64l2-2h6zm-3 17-1 1v64h11l2-1v-2l-7-1 1-56 6-2v-2l-3-1z" fill="#44348B"/>
<path transform="translate(1087,906)" d="m0 0h7l2 1 13 41 5 17 2-3 14-43 4-11 1-1h9l-2 9-20 55-3 6-1 1h-7l-3-2-19-57-3-12z" fill="#48484B"/>
<path transform="translate(1160,906)" d="m0 0 37 1v6l-1 1h-27v22h26v7h-26v27h28l1 1v6l-12 1h-25l-1-1z" fill="#49494A"/>
<path transform="translate(698,906)" d="m0 0h36l1 2-1 6h-28v22h27v7l-26 1-1 26h29l1 1v6l-24 1h-13l-1-1z" fill="#474849"/>
<path transform="translate(1463,907)" d="m0 0h25l7 3 6 7 2 5v10l-3 7-6 7-8 3h-17v29h-8l-1-31v-38zm8 6-2 1v27l4 2h8l9-3 4-5 1-3v-9l-3-6-5-3-4-1z" fill="#49494B"/>
<path transform="translate(1422,441)" d="m0 0h137l1 3-5 2v11h-22l-1-5v-8h-5l1 2v11l-8 2v-1l-14-1-1-3v-7l1-2-5-1v13h-20l-1-1v-10l-4-1v7l-1 5-7 1-14-1-1-1v-11h-5l1 8-1 4-7 1-7-1-1 3-1-2-6-1v-12l-6-1v-2zm7 3v10h15l1-1v-8l-6-1zm27 0v9l1 1h15l1-9-4-1zm28 0-1 1v8l1 1h13l1-7v-2l-5-1zm25 0-1 5 1 5h15l1-2v-7l-1-1zm27 0-1 1 1 8 1 1h14l1-9-6-1z" fill="#433386"/>
<path transform="translate(1079,420)" d="m0 0h3v13h6l2 2v7l4 1v35l-4 1v7l-2 2-5 1-1 12-3 1-1-7v-7h-6l-1-1v-53l8-1-1-12zm-4 17-1 1v46l3 1 9-1-1-5-6-1v-35l7-1v-5z" fill="#44338B"/>
<path transform="translate(1666,906)" d="m0 0h36l2 1v6l-1 1h-29l1 23h26l1 1v7h-28v33h-7l-1-1-1-31v-38z" fill="#464648"/>
<path transform="translate(1748,907)" d="m0 0h53v6l-10 1h-12v63l-1 1h-7l-1-1v-62l-22-2z" fill="#48494A"/>
<path transform="translate(905,513)" d="m0 0 5 3 19 19 4-1 12-13 7-7 3-1-1 5-19 19-3 6v3l3 1 13 1v2l-2 1h-14v10h15l1 3-1 1h-15v12l-4 1-1-12-14-1v-6h-59l2-4h69l1 4-1 1h2l1-9h-15v-4h15l-1-7-11-12-11-11-1-3z" fill="#493A88"/>
<path transform="translate(1756,410)" d="m0 0 5 1v2l3 1v2l3 1 7 9v8l-1 10 7 8v2l3 1v2l3 1v2l3 1 11 14 2 3v6l-10 9-15 9-7 1-21-9-20-8-21-6-5 1-9 11-8 13-1 9 8 16 2 5-4-1-6-10-4-8v-10l7-12 12-16 3-2h7l20 6 21 8 18 8h7l14-9 7-6v-5l-8-10-11-12-8-9-2-6 2-12-3-5-8-8-3-4z" fill="#433389"/>
<path transform="translate(945,907)" d="m0 0h10v16l-1 47h21l10 1 1 6-2 1h-38l-1-2z" fill="#525354"/>
<path transform="translate(1778,347)" d="m0 0h2l6 20 1 13-5 10-5 6-14 8-19 10-6 5v5h-3l-1-1v-6l7-6 16-8 16-9 6-7 3-6v-11l-3-11-3 12-4 6-9 8-14 8-26 10-8 6-1 20h-3l-1-2v-17l3-5 10-6 29-12 12-8 5-4 4-9 4-18z" fill="#433289"/>
<path transform="translate(1113,434)" d="m0 0 3 1v13h6l2 2v69l-1 5-6 1-1 12-2 1-2-1v-13h-7v-75l7-2v-12zm-5 18v68h12l1-47v-20l-1-1z" fill="#493B87"/>
<path transform="translate(1233,339)" d="m0 0 2 1v189l-4-1v-182z" fill="#4D3E8E"/>
<path transform="translate(1218,340)" d="m0 0h3v189l-4-1v-124z" fill="#4C3F84"/>
<path transform="translate(1038,516)" d="m0 0h7l7 3 5 4 4 9v5l-3-1-4-9-5-5-2-1h-11l-6 4-3 5-1 11h18l2 2-2 2h-18v11h19v3l-20 1-4 12h26l14 1-1 3h-44l1-5 4-12h-11v-3l12-1 1-1v-9h-9l-4-1 1-3h13v-14l4-6 6-4z" fill="#423186"/>
<path transform="translate(1286,906)" d="m0 0 8 1v70l-1 1h-7l-1-1v-70z" fill="#44434C"/>
<path transform="translate(1724,907)" d="m0 0h9v70l-1 1h-7l-1-1z" fill="#454647"/>
<path transform="translate(1e3 907)" d="m0 0h8l1 1v69l-5 1-4-1-1-58v-11z" fill="#505151"/>
<path transform="translate(1487,482)" d="m0 0h7l6 5 1 3v32l8 2 15 1 3 2-20 1h-81v-1l26-1 27-3v-25l1-9 5-6zm2 3-4 2-1 2v34h14l-1-34-4-4z" fill="#483A81"/>
<path transform="translate(1204,340)" d="m0 0h3v189h-3z" fill="#40218B"/>
<path transform="translate(1045,405)" d="m0 0h3v13h7l1 1v50l-1 6h-7v13h-3l-1-12-7-1v-56l2-1h6zm-5 17v49h12v-49z" fill="#443385"/>
<path transform="translate(996,548)" d="m0 0 3 1-1 3-12 3-8 6-5 9h25l1 4-26 1 1 4h24v5h-24l4 7 7 6 9 3 5 1-1 3-10-1-8-4-7-7-4-7-9-2v-3h8v-6h-8v-3l9-2 5-9 7-7 10-4z" fill="#423285"/>
<path transform="translate(1415,535)" d="m0 0h151l2 2v6h-4v-3l-147-1-1 5h-3v-6z" fill="#402F89"/>
<path transform="translate(1490,403)" d="m0 0 7 2 6 7v9l-5 8-4 2-9-1-7-8v-9l7-8z" fill="#3B2888"/>
<path transform="translate(1441,458)" d="m0 0h2v52l5 1 1 11-1 2h-10v-1h7l-1-9h-14l-1 9 5 1-4 2-5-1-4 1v-2l3-1 2-12 4-1 1-7v-37l2-7h2v49l-1 2h6v-50z" fill="#4D3F89"/>
<path transform="translate(1428,433)" d="m0 0h131l1 4-2 1h-120l-17-1v-3z" fill="#4B3B8E"/>
<path transform="translate(1224,555)" d="m0 0h123v4h-123z" fill="#3B2B7E"/>
<path transform="translate(1044,579)" d="m0 0 1 3-4 6-12 13-10 8-13 6-12 3h-21l-15-4-15-8-12-11-8-9-1-6 3 1 6 8 10 10 11 7 11 5 16 3h10l16-3 12-5 11-9 1-2h2l2-4 8-9z" fill="#443489"/>
<path transform="translate(982,480)" d="m0 0h3l1 7 7 4 3 4 1 8-3-1-4-8-3-2h-6l-4 2-2 4v7l4 4 11 3 5 4 2 4v8l-6 8-4 2-2 7-3-1-2-6-8-7-1-2v-6l3 1 3 6v2l9 1 5-3 1-2v-8l-4-4-11-3-5-5-2-4 1-8 6-7 4-2z" fill="#433386"/>
<path transform="translate(910,417)" d="m0 0h4v13h6l2 4-1 33-1 1h-6v13h-4v-13h-7l-1-36 3-2h5zm-4 17v30h12v-30z" fill="#413186"/>
<path transform="translate(1229,267)" d="m0 0h10l-1 2-21 2-24 5-16 6-16 8-18 11-12 9-9 9-8 7-7 8-7 9-11 18-8 18h-2l1-5 5-12 10-17 9-12 14-15 13-12 20-14 25-13 21-7 20-4z" fill="#4A3C87"/>
<path transform="translate(1419,339)" d="m0 0h3v8l6 1 5 6 1 7-3-1-4-7-3-2-9 1-3 4v8l4 4 12 3 5 6 1 2v7l-4 6-5 4h-3v8h-2l-2-7-6-4-4-5-1-6h3l4 8 5 2 7-1 3-5v-6l-2-4-4-2-9-2-5-5-2-4 1-9 4-5 6-3z" fill="#433289"/>
<path transform="translate(979,362)" d="m0 0 3 2v11l8 3-1 31-1 1h-6v12l-4 1v-13h-7l-1-2v-29l1-2 6-1 1-13zm-5 18v26h12v-26z" fill="#49398B"/>
<path transform="translate(1540,390)" d="m0 0 4 1 5 3 2-4 5 1 1 2 3 1 2-4 5 1 1 3 4-2 2-2 5 1 1 3 4-2 1-2 5 1 4 2 3-3 5 1 1 2h4l1-3h5l5 6v2l-5-1v-2l-4 1-2 2-5-1-4-2-3 3-5-1-4-2-2 3h-5l-2-3-4 2-5 1-3-3h-2l-2 3h-5l-1-3-4-1-1 4h-6l-1-4-3 1-2 3-4-1z" fill="#413187"/>
<path transform="translate(1625,406)" d="m0 0 5 5 12 17 11 16 1 6-5-4-8-12-14-20-3-1-16 24-10 13h-2l1-5 14-20 11-16z" fill="#402F87"/>
<path transform="translate(1490,389)" d="m0 0 4 1 7 8 9 9 2 1v2l4 2 12 12-1 3-6-4-10-10-6-5v-2l-4-2v-2h-2l-7-8-4 2-12 11-9 9-8 7-3 3-3-1 7-8 12-12 8-7z" fill="#433387"/>
<path transform="translate(1038,516)" d="m0 0h7l7 3 5 4 4 9v5l-3-1-4-9-5-5-2-1h-11l-6 4-3 5-1 11h18l2 2-2 2h-18l-1 3-3-3h-8l-4-1 1-3h13v-14l4-6 6-4z" fill="#433383"/>
<path transform="translate(1193,335)" d="m0 0 4 2v118l-2-2v-52l-2-1z" fill="#3A2886"/>
<path transform="translate(1731,387)" d="m0 0 3 1-1 3-33 3-11 2-9 8-7 8-11 7-6 2 1-4 11-6 17-17 5-3 14-2z" fill="#423286"/>
<path transform="translate(856,555)" d="m0 0h69l1 4-1 1-12-1h-59z" fill="#3C2A88"/>
<path transform="translate(820,443)" d="m0 0 5 3v2l7-5 4 2 1 2 4-2 5-1 2 2 4 1 1-3h5l4 4v4l-4-2-4-1-2 3-5-1-1-3-4 2-1 2-5-1-2-2h-3l-2 3-5-1-4-3-3 4-4-1-2-2h-3l-2 3-4-1 3-5 2-2h5l3 3z" fill="#453488"/>
<path transform="translate(1193,400)" d="m0 0h3v55l-1 16-1 51h-1z" fill="#444545"/>
<path transform="translate(1373,448)" d="m0 0h2v117l-2-1z" fill="#3A2A80"/>
<path transform="translate(1490,379)" d="m0 0 3 1-6 7-17 16-11 11-8 7-9 9-4 1 2-5 12-11 12-12 8-7 14-14z" fill="#463688"/>
<path transform="translate(968,480)" d="m0 0h6l-1 3-16 5-11 6-8 6-9 11-6 8-1-4 6-10 11-11 11-7 11-5z" fill="#443488"/>
<path transform="translate(1167,375)" d="m0 0 3 1v67l-4-1z" fill="#3D2B89"/>
<path transform="translate(1511,458)" d="m0 0h2l1 2v49l-1 2h-3v-51z" fill="#3E307D"/>
<path transform="translate(1460,458)" d="m0 0 2 1v50h-4v-49z" fill="#3E2D86"/>
<path transform="translate(1516,523)" d="m0 0h42l2 2v7l-4-1v-4l-6 1h-42v-1l16-1-15-1v-1z" fill="#53468C"/>
<path transform="translate(1497,387)" d="m0 0 6 3 16 16 8 7 10 9 2 4-5-1-16-15-13-12-8-9z" fill="#453685"/>
<path transform="translate(687,518)" d="m0 0h46v3l-5 1h-41l-1-2z" fill="#544690"/>
<path transform="translate(320,639)" d="m0 0h15l4 2v2l-9 3h-3l-1 8-1 2h-3l-1 3-1-2z" fill="#C3C4C5"/>
<path transform="translate(996,480)" d="m0 0 8 1 16 7 12 11 7 8v3l-4-2-9-10-8-6-13-6-9-4z" fill="#433388"/>
<path transform="translate(1392,500)" d="m0 0h9l5 3 3 6v6l-4 6-4 3-7 1-6-4-3-3-1-9 4-7zm0 2-5 5v10l4 4 2 1h7l5-4 2-4-1-7-5-5z" fill="#5A4E8E"/>
<path transform="translate(1408,556)" d="m0 0h51l1 3h-52z" fill="#3C2A86"/>
<path transform="translate(906,383)" d="m0 0h13v11l-1 1h-12z" fill="#3C2A87"/>
<path transform="translate(1040,380)" d="m0 0h13v11l-1 1h-10l-2-1z" fill="#3E2D87"/>
<path transform="translate(879,404)" d="m0 0h9l3 2-1 11h-11l-1-1v-11z" fill="#3C2988"/>
<path transform="translate(1699,433)" d="m0 0h3v3l-7 5-4 9v7l10 10v2l-5-1-7-6-2-3v-10l3-8z" fill="#402F87"/>
<path transform="translate(1024,538)" d="m0 0 1 3h19l2 2-2 2h-18l-1 3-3-3h-8l-4-1 1-3h13z" fill="#50438B"/>
<path transform="translate(1425,524)" d="m0 0 5 1 4-1h40v1l-16 1-6 1-26 1-1 3h-5v-5z" fill="#3E3468"/>
<path transform="translate(1229,267)" d="m0 0h10l-1 2-21 2-24 5-16 6h-3v-2l19-7 24-5z" fill="#493A86"/>
<path transform="translate(1533,446)" d="m0 0h2l2 7 14 1v-7l4-1v11h-22l-1-9z" fill="#402F87"/>
<path transform="translate(223,651)" d="m0 0h28l13 1 3 2h-47l-21 1 3-3z" fill="#CFD0D0"/>
<path transform="translate(1167,478)" d="m0 0h3v39h-3z" fill="#3A2787"/>
<path transform="translate(1486,525)" d="m0 0h8l13 2v1h-81v-1l48-1h10z" fill="#ACADAE"/>
<path transform="translate(1107,331)" d="m0 0v3l-7 9-11 18-8 18h-2l1-5 5-12 10-17 7-10z" fill="#493A87"/>
<path transform="translate(1119,373)" d="m0 0h5l-1 3-7 1-8 4-7 7-5 10-2 12-3-1 2-12 6-11 7-7 9-5z" fill="#473987"/>
<path transform="translate(1384,356)" d="m0 0 5 1 2 3-1 6-5 2-5-3-1-5 3-3z" fill="#423287"/>
<path transform="translate(1574,359)" d="m0 0 6 1 2 6-3 4h-6l-4-5 3-5z" fill="#3D2B88"/>
<path transform="translate(1271,460)" d="m0 0 4 1 15 14 3 5-2 2-10-10-8-7z" fill="#453587"/>
<path transform="translate(1271,513)" d="m0 0 5 2 16 16 1 4-4-1-16-16z" fill="#3C2B86"/>
<path transform="translate(1271,407)" d="m0 0 6 3 15 15 1 4-4-1-17-17z" fill="#463885"/>
<path transform="translate(1271,425)" d="m0 0 5 2v2l4 2 12 12 1 4-4-1-17-17z" fill="#433389"/>
<path transform="translate(1272,495)" d="m0 0 8 6 12 12 1 4-4-1-17-17z" fill="#402E89"/>
<path transform="translate(1381,402)" d="m0 0 9 1 8 4 7 8 5 9 2 8h-3l-2-7-5-9-5-6-10-5-6-1z" fill="#443582"/>
<path transform="translate(1481,511)" d="m0 0h1v11l10 1-2 2-6 2h-32v-1l27-3 1-1z" fill="#45454B"/>
<path transform="translate(1272,478)" d="m0 0 4 2 13 12 3 3v4l-4-2-16-16z" fill="#403083"/>
<path transform="translate(1272,443)" d="m0 0 6 4 9 9 5 4-1 4-10-9-8-7z" fill="#423185"/>
<path transform="translate(1129,308)" d="m0 0m-1 1 1 3-7 7-8 7-5 6-2-2 9-10 8-8z" fill="#574A8F"/>
<path transform="translate(1500,523)" d="m0 0 9 1 15 1 3 2h-29l-4-2z" fill="#484949"/>
<path transform="translate(1392,500)" d="m0 0h9l5 3 3 7-3-1-5-6h-9l-4 4-2 8-2-1 1-8 4-5z" fill="#3F2F83"/>
<path transform="translate(1064,379)" d="m0 0h3l-1 28h-2z" fill="#4D4573"/>
<path transform="translate(846,413)" d="m0 0h3l3 4-2 4-4 1-4-2 1-4h2z" fill="#49398C"/>
<path transform="translate(1519,326)" d="m0 0 3 1v19l-3-1z" fill="#918EA2"/>
<path transform="translate(1079,522)" d="m0 0h3l3 4-2 4-3 1-5-2 1-4z" fill="#413088"/>
<path transform="translate(1394,459)" d="m0 0 6 1 1 4-4 4-4-2-1-5z" fill="#3D2B86"/>
<path transform="translate(1754,526)" d="m0 0 6 4-4 5-4-1-2-2 1-4z" fill="#3F2D88"/>
<path transform="translate(1753,428)" d="m0 0 5 2 4 5-3 1-4-3-5 2h-3l2-4z" fill="#433389"/>
<path transform="translate(1357,510)" d="m0 0 3 1v21h-3z" fill="#6A6190"/>
<path transform="translate(1193,273)" d="m0 0h3v2l-17 6-5 1v-2z" fill="#3E2E85"/>
<path transform="translate(1446,524)" d="m0 0h28v1l-16 1-8 1-4-1z" fill="#392688"/>
<path transform="translate(395,626)" d="m0 0h1l1 13h-6l3-10-1-2z" fill="#C2C3C4"/>
<path transform="translate(1328,427)" d="m0 0h10v4h-10z" fill="#3B2C78"/>
<path transform="translate(1406,509)" d="m0 0 3 1-1 7-5 6-3 1 1-4 4-4z" fill="#4F4384"/>
<path transform="translate(1167,457)" d="m0 0h3v13l-3-1z" fill="#3F2E86"/>
<path transform="translate(1332,514)" d="m0 0h6v4h-10l-1-3z" fill="#48398B"/>
<path transform="translate(1328,492)" d="m0 0h10v3l-3 1h-7z" fill="#4F418B"/>
<path transform="translate(1328,372)" d="m0 0h10l-1 4h-9z" fill="#554A85"/>
<path transform="translate(1425,524)" d="m0 0 4 2-3 2-1 3h-5v-5z" fill="#42347C"/>
<path transform="translate(1398,500)" d="m0 0 5 1 5 5 1 4-3-1-5-6-6-1z" fill="#42357A"/>
<path transform="translate(1357,417)" d="m0 0 3 1v14h-3z" fill="#5D5583"/>
<path transform="translate(1172,281)" d="m0 0 3 1-4 3-11 5 2-4z" fill="#54478D"/>
<path transform="translate(1327,526)" d="m0 0h11v3h-10z" fill="#4F4384"/>
<path transform="translate(1335,481)" d="m0 0h3v4h-10v-3z" fill="#43328B"/>
<path transform="translate(1327,439)" d="m0 0h11v3h-10z" fill="#594E8A"/>
<path transform="translate(1327,504)" d="m0 0h11v3h-10z" fill="#3F3178"/>
<path transform="translate(1328,470)" d="m0 0h10v3h-10z" fill="#462A8D"/>
<path transform="translate(1336,459)" d="m0 0 3 2-1 2h-10v-3z" fill="#42347D"/>
<path transform="translate(1336,394)" d="m0 0h2l-1 4h-9v-3z" fill="#605592"/>
<path transform="translate(1328,383)" d="m0 0h10v3h-10z" fill="#3C2B87"/>
<path transform="translate(1328,361)" d="m0 0h10v3h-10z" fill="#392783"/>
<path transform="translate(1160,287)" d="m0 0m-1 1v3l-10 6-2-1 4-4z" fill="#443585"/>
<path transform="translate(1336,449)" d="m0 0 2 1v3h-10v-3z" fill="#41278B"/>
<path transform="translate(1328,405)" d="m0 0h10v3h-10z" fill="#3D2B87"/>
<path transform="translate(1119,373)" d="m0 0h5l-1 3-7 1-7 3 2-4z" fill="#493B84"/>
<path transform="translate(1109,377)" d="m0 0m-1 1v3l-7 7h-2l2-4z" fill="#3B2C7A"/>
<path transform="translate(1328,350)" d="m0 0h10v3h-10z" fill="#392688"/>
<path transform="translate(1107,331)" d="m0 0v3l-8 10h-2l2-5 5-5z" fill="#3A2981"/>
<path transform="translate(201,652)" d="m0 0 19 1v1l-21 1z" fill="#BFC0C1"/>
<path transform="translate(1428,520)" d="m0 0 1 3 5 1-4 2-5-1-4 1v-2l4-2h3z" fill="#645C87"/>
<path transform="translate(1328,417)" d="m0 0h11l-1 3h-10z" fill="#554791"/>
<path transform="translate(1520,330)" d="m0 0h1l1 7v9l-3-1z" fill="#463784"/>
<path transform="translate(960,580)" d="m0 0h8v3 1l-8-1z" fill="#614296"/>
<path transform="translate(1357,454)" d="m0 0h3v5h-3z" fill="#50438B"/>
<path transform="translate(1064,372)" d="m0 0 3 1v4h-3z" fill="#443877"/>
<path transform="translate(1181,570)" d="m0 0h4v4h-3z" fill="#4B3D88"/>
<path transform="translate(1064,366)" d="m0 0 3 1v3l-4-1z" fill="#5D518E"/>
<path transform="translate(1519,348)" d="m0 0 4 1-1 3-3-1z" fill="#5C4F93"/>
<path transform="translate(1196,569)" d="m0 0 2 1-1 4h-2z" fill="#5A5475"/>
<path transform="translate(1156,569)" d="m0 0 2 1v4l-3-1z" fill="#59527B"/>
<path transform="translate(1150,569)" d="m0 0 2 1-1 4h-2z" fill="#60558F"/>
<path transform="translate(1142,570)" d="m0 0h3v4h-3z" fill="#443680"/>
<path transform="translate(1357,462)" d="m0 0 3 1-1 4-2-1z" fill="#4E4183"/>
<path transform="translate(1189,570)" d="m0 0 3 1v3h-3z" fill="#5A5086"/>
<path transform="translate(773,542)" d="m0 0 2 1-1 4-2-1z" fill="#5B5380"/>
<path transform="translate(1375,401)" d="m0 0h4v3l-4-1z" fill="#473D73"/>
<path transform="translate(779,542)" d="m0 0h2l-1 5-2-2z" fill="#5C518C"/>
<path transform="translate(1357,488)" d="m0 0 3 1v3l-3-1z" fill="#483F71"/>
<path transform="translate(1358,469)" d="m0 0 2 1v3h-3z" fill="#483F71"/>
<path transform="translate(1357,435)" d="m0 0 3 1v3l-3-1z" fill="#544D74"/>
<path transform="translate(1519,367)" d="m0 0 4 1-1 2h-3z" fill="#44338B"/>
<path transform="translate(1519,361)" d="m0 0 4 1-1 2h-3z" fill="#392688"/>
<path transform="translate(1520,354)" d="m0 0 3 3h-4z" fill="#3C2F73"/>
<path transform="translate(1175,569)" d="m0 0 2 1v4h-2z" fill="#60568D"/>
<path transform="translate(1168,570)" d="m0 0h3v4h-2z" fill="#473884"/>
<path transform="translate(1162,569)" d="m0 0 2 1v4h-2z" fill="#473884"/>
<path transform="translate(792,542)" d="m0 0 2 2-3 3z" fill="#5F5394"/>
<path transform="translate(766,542)" d="m0 0h2l-1 5h-1z" fill="#524490"/>
<path transform="translate(785,542)" d="m0 0h2l-1 5h-1z" fill="#3A2980"/>
<path transform="translate(1357,482)" d="m0 0h3v3h-3z" fill="#473884"/>
<path transform="translate(1357,476)" d="m0 0h3v3h-3z" fill="#473884"/>
<path transform="translate(1357,448)" d="m0 0h3v3h-3z" fill="#3B2C79"/>
<path transform="translate(1357,442)" d="m0 0h3v3h-3z" fill="#3C3071"/>
<path transform="translate(1519,373)" d="m0 0h3v3h-3z" fill="#524490"/>
<path transform="translate(797,542)" d="m0 0 3 1-1 3h-2z" fill="#72699B"/>
<path transform="translate(760,542)" d="m0 0 2 1-1 4h-1z" fill="#47368C"/>
<path transform="translate(1358,494)" d="m0 0 2 1v2l-4-1z" fill="#4A3E7C"/>
<path transform="translate(804,542)" d="m0 0 1 4h-2z" fill="#7A739D"/>
<path transform="translate(478,691)" d="m0 0 1 2-2 2z" fill="#B0B1B2"/>
<path transform="translate(473,677)" d="m0 0" fill="#C2C3C4"/>
<path transform="translate(487,676)" d="m0 0" fill="#C2C3C4"/>
<path transform="translate(486,674)" d="m0 0" fill="#C2C3C4"/>
</svg>
